<svg xmlns="http://www.w3.org/2000/svg" viewBox="0 0 96 96" width="96" height="96" fill="none">
  <path d="M -96 96 L 0 0" stroke="rgba(255,255,255,0.10)" stroke-width="1"/>
  <path d="M -84 96 L 12 0" stroke="rgba(255,255,255,0.10)" stroke-width="1"/>
  <path d="M -72 96 L 24 0" stroke="rgba(255,255,255,0.10)" stroke-width="1"/>
  <path d="M -60 96 L 36 0" stroke="rgba(255,255,255,0.10)" stroke-width="1"/>
  <path d="M -48 96 L 48 0" stroke="rgba(255,255,255,0.10)" stroke-width="1"/>
  <path d="M -36 96 L 60 0" stroke="rgba(255,255,255,0.10)" stroke-width="1"/>
  <path d="M -24 96 L 72 0" stroke="rgba(255,255,255,0.10)" stroke-width="1"/>
  <path d="M -12 96 L 84 0" stroke="rgba(255,255,255,0.10)" stroke-width="1"/>
  <path d="M 0 96 L 96 0" stroke="rgba(255,255,255,0.10)" stroke-width="1"/>
  <path d="M 12 96 L 108 0" stroke="rgba(255,255,255,0.10)" stroke-width="1"/>
  <path d="M 24 96 L 120 0" stroke="rgba(255,255,255,0.10)" stroke-width="1"/>
  <path d="M 36 96 L 132 0" stroke="rgba(255,255,255,0.10)" stroke-width="1"/>
  <path d="M 48 96 L 144 0" stroke="rgba(255,255,255,0.10)" stroke-width="1"/>
  <path d="M 60 96 L 156 0" stroke="rgba(255,255,255,0.10)" stroke-width="1"/>
  <path d="M 72 96 L 168 0" stroke="rgba(255,255,255,0.10)" stroke-width="1"/>
  <path d="M 84 96 L 180 0" stroke="rgba(255,255,255,0.10)" stroke-width="1"/>
  <path d="M 96 96 L 192 0" stroke="rgba(255,255,255,0.10)" stroke-width="1"/>
</svg>
