0
SECTION
2
HEADER
9
$ACADVER
1
AC1015
9
$INSUNITS
70
6
0
ENDSEC
0
SECTION
2
ENTITIES
0
LWPOLYLINE
8
ГРАНИЦА УЧАСТКА
100
AcDbEntity
100
AcDbPolyline
90
4
70
1
10
4512300.0000
20
6178400.0000
10
4512331.0000
20
6178401.8000
10
4512329.9200
20
6178432.0000
10
4512299.4600
20
6178431.2800
0
LWPOLYLINE
8
ГОРИЗОНТАЛИ
100
AcDbEntity
100
AcDbPolyline
90
19
70
0
38
410.200
10
4512288.0000
20
6178386.5112
10
4512291.0000
20
6178386.4099
10
4512294.0000
20
6178386.6776
10
4512297.0000
20
6178387.2520
10
4512300.0000
20
6178388.0000
10
4512303.0000
20
6178388.7480
10
4512306.0000
20
6178389.3224
10
4512309.0000
20
6178389.5901
10
4512312.0000
20
6178389.4888
10
4512315.0000
20
6178389.0422
10
4512318.0000
20
6178388.3538
10
4512321.0000
20
6178387.5833
10
4512324.0000
20
6178386.9095
10
4512327.0000
20
6178386.4886
10
4512330.0000
20
6178386.4185
10
4512333.0000
20
6178386.7152
10
4512336.0000
20
6178387.3100
10
4512339.0000
20
6178388.0648
10
4512342.0000
20
6178388.8047
0
LWPOLYLINE
8
ГОРИЗОНТАЛИ
100
AcDbEntity
100
AcDbPolyline
90
19
70
0
38
410.540
10
4512288.0000
20
6178394.4838
10
4512291.0000
20
6178394.8985
10
4512294.0000
20
6178395.5688
10
4512297.0000
20
6178396.3391
10
4512300.0000
20
6178397.0307
10
4512303.0000
20
6178397.4833
10
4512306.0000
20
6178397.5917
10
4512309.0000
20
6178397.3308
10
4512312.0000
20
6178396.7612
10
4512315.0000
20
6178396.0150
10
4512318.0000
20
6178395.2653
10
4512321.0000
20
6178394.6861
10
4512324.0000
20
6178394.4117
10
4512327.0000
20
6178394.5057
10
4512330.0000
20
6178394.9464
10
4512333.0000
20
6178395.6316
10
4512336.0000
20
6178396.4022
10
4512339.0000
20
6178397.0795
10
4512342.0000
20
6178397.5064
0
LWPOLYLINE
8
ГОРИЗОНТАЛИ
100
AcDbEntity
100
AcDbPolyline
90
19
70
0
38
410.890
10
4512288.0000
20
6178403.1695
10
4512291.0000
20
6178403.9051
10
4512294.0000
20
6178404.6628
10
4512297.0000
20
6178405.2667
10
4512300.0000
20
6178405.5767
10
4512303.0000
20
6178405.5210
10
4512306.0000
20
6178405.1123
10
4512309.0000
20
6178404.4457
10
4512312.0000
20
6178403.6756
10
4512315.0000
20
6178402.9808
10
4512318.0000
20
6178402.5224
10
4512321.0000
20
6178402.4069
10
4512324.0000
20
6178402.6609
10
4512327.0000
20
6178403.2256
10
4512330.0000
20
6178403.9699
10
4512333.0000
20
6178404.7213
10
4512336.0000
20
6178405.3053
10
4512339.0000
20
6178405.5864
10
4512342.0000
20
6178405.4996
0
LWPOLYLINE
8
ГОРИЗОНТАЛИ
100
AcDbEntity
100
AcDbPolyline
90
19
70
0
38
411.230
10
4512288.0000
20
6178412.2458
10
4512291.0000
20
6178412.9564
10
4512294.0000
20
6178413.4451
10
4512297.0000
20
6178413.5985
10
4512300.0000
20
6178413.3811
10
4512303.0000
20
6178412.8433
10
4512306.0000
20
6178412.1099
10
4512309.0000
20
6178411.3509
10
4512312.0000
20
6178410.7425
10
4512315.0000
20
6178410.4259
10
4512318.0000
20
6178410.4744
10
4512321.0000
20
6178410.8769
10
4512324.0000
20
6178411.5399
10
4512327.0000
20
6178412.3097
10
4512330.0000
20
6178413.0076
10
4512333.0000
20
6178413.4717
10
4512336.0000
20
6178413.5945
10
4512339.0000
20
6178413.3473
10
4512342.0000
20
6178412.7875
0
LWPOLYLINE
8
ГОРИЗОНТАЛИ
100
AcDbEntity
100
AcDbPolyline
90
19
70
0
38
411.570
10
4512288.0000
20
6178421.2065
10
4512291.0000
20
6178421.5578
10
4512294.0000
20
6178421.5477
10
4512297.0000
20
6178421.1786
10
4512300.0000
20
6178420.5360
10
4512303.0000
20
6178419.7691
10
4512306.0000
20
6178419.0557
10
4512309.0000
20
6178418.5614
10
4512312.0000
20
6178418.4009
10
4512315.0000
20
6178418.6113
10
4512318.0000
20
6178419.1440
10
4512321.0000
20
6178419.8752
10
4512324.0000
20
6178420.6353
10
4512327.0000
20
6178421.2481
10
4512330.0000
20
6178421.5713
10
4512333.0000
20
6178421.5300
10
4512336.0000
20
6178421.1337
10
4512339.0000
20
6178420.4744
10
4512342.0000
20
6178419.7051
0
LWPOLYLINE
8
ГОРИЗОНТАЛИ
100
AcDbEntity
100
AcDbPolyline
90
19
70
0
38
411.910
10
4512288.0000
20
6178429.5998
10
4512291.0000
20
6178429.4266
10
4512294.0000
20
6178428.9224
10
4512297.0000
20
6178428.2043
10
4512300.0000
20
6178427.4387
10
4512303.0000
20
6178426.8034
10
4512306.0000
20
6178426.4457
10
4512309.0000
20
6178426.4485
10
4512312.0000
20
6178426.8113
10
4512315.0000
20
6178427.4499
10
4512318.0000
20
6178428.2161
10
4512321.0000
20
6178428.9321
10
4512324.0000
20
6178429.4319
10
4512327.0000
20
6178429.5995
10
4512330.0000
20
6178429.3961
10
4512333.0000
20
6178428.8687
10
4512336.0000
20
6178428.1398
10
4512339.0000
20
6178427.3785
10
4512342.0000
20
6178426.7613
0
LWPOLYLINE
8
ГОРИЗОНТАЛИ
100
AcDbEntity
100
AcDbPolyline
90
19
70
0
38
412.260
10
4512288.0000
20
6178437.2406
10
4512291.0000
20
6178436.6244
10
4512294.0000
20
6178435.8633
10
4512297.0000
20
6178435.1339
10
4512300.0000
20
6178434.6055
10
4512303.0000
20
6178434.4005
10
4512306.0000
20
6178434.5667
10
4512309.0000
20
6178435.0653
10
4512312.0000
20
6178435.7808
10
4512315.0000
20
6178436.5472
10
4512318.0000
20
6178437.1866
10
4512321.0000
20
6178437.5507
10
4512324.0000
20
6178437.5551
10
4512327.0000
20
6178437.1987
10
4512330.0000
20
6178436.5642
10
4512333.0000
20
6178435.7988
10
4512336.0000
20
6178435.0801
10
4512339.0000
20
6178434.5748
10
4512342.0000
20
6178434.4002
0
LWPOLYLINE
8
ГОРИЗОНТАЛИ
100
AcDbEntity
100
AcDbPolyline
90
19
70
0
38
412.600
10
4512288.0000
20
6178444.2980
10
4512291.0000
20
6178443.5286
10
4512294.0000
20
6178442.8685
10
4512297.0000
20
6178442.4709
10
4512300.0000
20
6178442.4281
10
4512303.0000
20
6178442.7499
10
4512306.0000
20
6178443.3618
10
4512309.0000
20
6178444.1217
10
4512312.0000
20
6178444.8534
10
4512315.0000
20
6178445.3871
10
4512318.0000
20
6178445.5990
10
4512321.0000
20
6178445.4399
10
4512324.0000
20
6178444.9468
10
4512327.0000
20
6178444.2341
10
4512330.0000
20
6178443.4670
10
4512333.0000
20
6178442.8236
10
4512336.0000
20
6178442.4531
10
4512339.0000
20
6178442.4415
10
4512342.0000
20
6178442.7914
0
LWPOLYLINE
8
ДОРОГИ ПРОЕЗДЫ
100
AcDbEntity
100
AcDbPolyline
90
2
70
0
10
4512284.0000
20
6178438.0000
10
4512347.0000
20
6178438.0000
0
LWPOLYLINE
8
ДОРОГИ ПРОЕЗДЫ
100
AcDbEntity
100
AcDbPolyline
90
2
70
0
10
4512284.0000
20
6178441.0000
10
4512347.0000
20
6178441.0000
0
LWPOLYLINE
8
ДОРОГИ ПРОЕЗДЫ
100
AcDbEntity
100
AcDbPolyline
90
2
70
0
10
4512284.0000
20
6178444.0000
10
4512347.0000
20
6178444.0000
0
LWPOLYLINE
8
ОГРАЖДЕНИЯ
100
AcDbEntity
100
AcDbPolyline
90
4
70
0
10
4512299.6000
20
6178432.4000
10
4512331.4000
20
6178432.4000
10
4512331.4000
20
6178399.6000
10
4512319.2200
20
6178399.6000
0
LWPOLYLINE
8
ОГРАЖДЕНИЯ
100
AcDbEntity
100
AcDbPolyline
90
3
70
0
10
4512311.7800
20
6178399.6000
10
4512299.6000
20
6178399.6000
10
4512299.6000
20
6178432.4000
0
LWPOLYLINE
8
СУЩЕСТВУЮЩИЕ СТРОЕНИЯ
100
AcDbEntity
100
AcDbPolyline
90
4
70
1
10
4512284.0000
20
6178435.0000
10
4512293.0000
20
6178435.0000
10
4512293.0000
20
6178442.0000
10
4512284.0000
20
6178442.0000
0
LWPOLYLINE
8
СУЩЕСТВУЮЩИЕ СТРОЕНИЯ
100
AcDbEntity
100
AcDbPolyline
90
4
70
1
10
4512336.0000
20
6178409.6000
10
4512344.0000
20
6178409.6000
10
4512344.0000
20
6178415.6000
10
4512336.0000
20
6178415.6000
0
LWPOLYLINE
8
СУЩЕСТВУЮЩИЕ СТРОЕНИЯ
100
AcDbEntity
100
AcDbPolyline
90
4
70
1
10
4512337.0000
20
6178423.0400
10
4512342.0000
20
6178423.0400
10
4512342.0000
20
6178427.0400
10
4512337.0000
20
6178427.0400
0
LWPOLYLINE
8
СУЩЕСТВУЮЩИЕ СТРОЕНИЯ
100
AcDbEntity
100
AcDbPolyline
90
4
70
1
10
4512321.0800
20
6178402.5600
10
4512325.5800
20
6178402.5600
10
4512325.5800
20
6178405.5600
10
4512321.0800
20
6178405.5600
0
LWPOLYLINE
8
ЗЕЛЕНЫЕ НАСАЖДЕНИЯ
100
AcDbEntity
100
AcDbPolyline
90
8
70
1
10
4512296.4000
20
6178417.6000
10
4512295.6971
20
6178419.2971
10
4512294.0000
20
6178420.0000
10
4512292.3029
20
6178419.2971
10
4512291.6000
20
6178417.6000
10
4512292.3029
20
6178415.9029
10
4512294.0000
20
6178415.2000
10
4512295.6971
20
6178415.9029
0
LWPOLYLINE
8
ЗЕЛЕНЫЕ НАСАЖДЕНИЯ
100
AcDbEntity
100
AcDbPolyline
90
8
70
1
10
4512336.6000
20
6178401.6000
10
4512335.9849
20
6178403.0849
10
4512334.5000
20
6178403.7000
10
4512333.0151
20
6178403.0849
10
4512332.4000
20
6178401.6000
10
4512333.0151
20
6178400.1151
10
4512334.5000
20
6178399.5000
10
4512335.9849
20
6178400.1151
0
LWPOLYLINE
8
ЗЕЛЕНЫЕ НАСАЖДЕНИЯ
100
AcDbEntity
100
AcDbPolyline
90
8
70
1
10
4512306.5200
20
6178436.0000
10
4512305.6999
20
6178437.9799
10
4512303.7200
20
6178438.8000
10
4512301.7401
20
6178437.9799
10
4512300.9200
20
6178436.0000
10
4512301.7401
20
6178434.0201
10
4512303.7200
20
6178433.2000
10
4512305.6999
20
6178434.0201
0
LWPOLYLINE
8
ЗЕЛЕНЫЕ НАСАЖДЕНИЯ
100
AcDbEntity
100
AcDbPolyline
90
8
70
1
10
4512317.4000
20
6178395.0000
10
4512316.8435
20
6178396.3435
10
4512315.5000
20
6178396.9000
10
4512314.1565
20
6178396.3435
10
4512313.6000
20
6178395.0000
10
4512314.1565
20
6178393.6565
10
4512315.5000
20
6178393.1000
10
4512316.8435
20
6178393.6565
0
LWPOLYLINE
8
В1 ВОДОПРОВОД
100
AcDbEntity
100
AcDbPolyline
90
4
70
0
10
4512295.0000
20
6178410.5000
10
4512310.0000
20
6178412.8000
10
4512324.0000
20
6178411.2000
10
4512338.0000
20
6178413.0000
0
ENDSEC
0
EOF
