0
SECTION
2
HEADER
9
$ACADVER
1
AC1015
9
$INSUNITS
70
6
0
ENDSEC
0
SECTION
2
ENTITIES
0
LWPOLYLINE
8
ГРАНИЦА УЧАСТКА
100
AcDbEntity
100
AcDbPolyline
90
4
70
1
10
4512300.0000
20
6178400.0000
10
4512334.0000
20
6178402.4000
10
4512332.5600
20
6178435.0000
10
4512299.2800
20
6178434.0400
0
LWPOLYLINE
8
ГОРИЗОНТАЛИ
100
AcDbEntity
100
AcDbPolyline
90
20
70
0
38
408.500
10
4512288.0000
20
6178385.8453
10
4512291.0000
20
6178385.8632
10
4512294.0000
20
6178386.2946
10
4512297.0000
20
6178387.0559
10
4512300.0000
20
6178388.0000
10
4512303.0000
20
6178388.9441
10
4512306.0000
20
6178389.7054
10
4512309.0000
20
6178390.1368
10
4512312.0000
20
6178390.1547
10
4512315.0000
20
6178389.7556
10
4512318.0000
20
6178389.0168
10
4512321.0000
20
6178388.0813
10
4512324.0000
20
6178387.1300
10
4512327.0000
20
6178386.3471
10
4512330.0000
20
6178385.8840
10
4512333.0000
20
6178385.8304
10
4512336.0000
20
6178386.1966
10
4512339.0000
20
6178386.9118
10
4512342.0000
20
6178387.8375
10
4512345.0000
20
6178388.7947
0
LWPOLYLINE
8
ГОРИЗОНТАЛИ
100
AcDbEntity
100
AcDbPolyline
90
20
70
0
38
409.060
10
4512288.0000
20
6178393.4409
10
4512291.0000
20
6178394.0779
10
4512294.0000
20
6178394.9659
10
4512297.0000
20
6178395.9331
10
4512300.0000
20
6178396.7923
10
4512303.0000
20
6178397.3772
10
4512306.0000
20
6178397.5747
10
4512309.0000
20
6178397.3465
10
4512312.0000
20
6178396.7369
10
4512315.0000
20
6178395.8637
10
4512318.0000
20
6178394.8959
10
4512321.0000
20
6178394.0209
10
4512324.0000
20
6178393.4078
10
4512327.0000
20
6178393.1755
10
4512330.0000
20
6178393.3687
10
4512333.0000
20
6178393.9502
10
4512336.0000
20
6178394.8074
10
4512339.0000
20
6178395.7744
10
4512342.0000
20
6178396.6641
10
4512345.0000
20
6178397.3044
0
LWPOLYLINE
8
ГОРИЗОНТАЛИ
100
AcDbEntity
100
AcDbPolyline
90
20
70
0
38
409.630
10
4512288.0000
20
6178401.9461
10
4512291.0000
20
6178402.9027
10
4512294.0000
20
6178403.8297
10
4512297.0000
20
6178404.5478
10
4512300.0000
20
6178404.9180
10
4512303.0000
20
6178404.8687
10
4512306.0000
20
6178404.4094
10
4512309.0000
20
6178403.6290
10
4512312.0000
20
6178402.6785
10
4512315.0000
20
6178401.7419
10
4512318.0000
20
6178401.0003
10
4512321.0000
20
6178400.5973
10
4512324.0000
20
6178400.6109
10
4512327.0000
20
6178401.0383
10
4512330.0000
20
6178401.7970
10
4512333.0000
20
6178402.7402
10
4512336.0000
20
6178403.6852
10
4512339.0000
20
6178404.4492
10
4512342.0000
20
6178404.8845
10
4512345.0000
20
6178404.9067
0
LWPOLYLINE
8
ГОРИЗОНТАЛИ
100
AcDbEntity
100
AcDbPolyline
90
20
70
0
38
410.190
10
4512288.0000
20
6178410.8294
10
4512291.0000
20
6178411.6556
10
4512294.0000
20
6178412.1856
10
4512297.0000
20
6178412.3169
10
4512300.0000
20
6178412.0241
10
4512303.0000
20
6178411.3637
10
4512306.0000
20
6178410.4637
10
4512309.0000
20
6178409.4981
10
4512312.0000
20
6178408.6538
10
4512315.0000
20
6178408.0942
10
4512318.0000
20
6178407.9276
10
4512321.0000
20
6178408.1862
10
4512324.0000
20
6178408.8199
10
4512327.0000
20
6178409.7062
10
4512330.0000
20
6178410.6736
10
4512333.0000
20
6178411.5347
10
4512336.0000
20
6178412.1231
10
4512339.0000
20
6178412.3248
10
4512342.0000
20
6178412.1009
10
4512345.0000
20
6178411.4946
0
LWPOLYLINE
8
ГОРИЗОНТАЛИ
100
AcDbEntity
100
AcDbPolyline
90
20
70
0
38
410.750
10
4512288.0000
20
6178419.3814
10
4512291.0000
20
6178419.6887
10
4512294.0000
20
6178419.5725
10
4512297.0000
20
6178419.0552
10
4512300.0000
20
6178418.2370
10
4512303.0000
20
6178417.2762
10
4512306.0000
20
6178416.3586
10
4512309.0000
20
6178415.6620
10
4512312.0000
20
6178415.3210
10
4512315.0000
20
6178415.4017
10
4512318.0000
20
6178415.8884
10
4512321.0000
20
6178416.6869
10
4512324.0000
20
6178417.6428
10
4512327.0000
20
6178418.5711
10
4512330.0000
20
6178419.2921
10
4512333.0000
20
6178419.6663
10
4512336.0000
20
6178419.6213
10
4512339.0000
20
6178419.1659
10
4512342.0000
20
6178418.3880
10
4512345.0000
20
6178417.4384
0
LWPOLYLINE
8
ГОРИЗОНТАЛИ
100
AcDbEntity
100
AcDbPolyline
90
20
70
0
38
411.310
10
4512288.0000
20
6178427.0486
10
4512291.0000
20
6178426.6924
10
4512294.0000
20
6178425.9846
10
4512297.0000
20
6178425.0620
10
4512300.0000
20
6178424.1033
10
4512303.0000
20
6178423.2939
10
4512306.0000
20
6178422.7904
10
4512309.0000
20
6178422.6903
10
4512312.0000
20
6178423.0130
10
4512315.0000
20
6178423.6960
10
4512318.0000
20
6178424.6071
10
4512321.0000
20
6178425.5701
10
4512324.0000
20
6178426.3985
10
4512327.0000
20
6178426.9322
10
4512330.0000
20
6178427.0677
10
4512333.0000
20
6178426.7790
10
4512336.0000
20
6178426.1218
10
4512339.0000
20
6178425.2234
10
4512342.0000
20
6178424.2575
10
4512345.0000
20
6178423.4112
0
LWPOLYLINE
8
ГОРИЗОНТАЛИ
100
AcDbEntity
100
AcDbPolyline
90
20
70
0
38
411.880
10
4512288.0000
20
6178433.6935
10
4512291.0000
20
6178432.8414
10
4512294.0000
20
6178431.8748
10
4512297.0000
20
6178430.9809
10
4512300.0000
20
6178430.3325
10
4512303.0000
20
6178430.0552
10
4512306.0000
20
6178430.2026
10
4512309.0000
20
6178430.7462
10
4512312.0000
20
6178431.5807
10
4512315.0000
20
6178432.5448
10
4512318.0000
20
6178433.4518
10
4512321.0000
20
6178434.1263
10
4512324.0000
20
6178434.4377
10
4512327.0000
20
6178434.3258
10
4512330.0000
20
6178433.8121
10
4512333.0000
20
6178432.9962
10
4512336.0000
20
6178432.0360
10
4512339.0000
20
6178431.1171
10
4512342.0000
20
6178430.4174
10
4512345.0000
20
6178430.0724
0
LWPOLYLINE
8
ГОРИЗОНТАЛИ
100
AcDbEntity
100
AcDbPolyline
90
20
70
0
38
412.440
10
4512288.0000
20
6178439.6595
10
4512291.0000
20
6178438.7122
10
4512294.0000
20
6178437.9415
10
4512297.0000
20
6178437.4966
10
4512300.0000
20
6178437.4636
10
4512303.0000
20
6178437.8488
10
4512306.0000
20
6178438.5777
10
4512309.0000
20
6178439.5093
10
4512312.0000
20
6178440.4632
10
4512315.0000
20
6178441.2550
10
4512318.0000
20
6178441.7313
10
4512321.0000
20
6178441.8001
10
4512324.0000
20
6178441.4479
10
4512327.0000
20
6178440.7431
10
4512330.0000
20
6178439.8218
10
4512333.0000
20
6178438.8625
10
4512336.0000
20
6178438.0507
10
4512339.0000
20
6178437.5436
10
4512342.0000
20
6178437.4392
10
4512345.0000
20
6178437.7578
0
LWPOLYLINE
8
ГОРИЗОНТАЛИ
100
AcDbEntity
100
AcDbPolyline
90
20
70
0
38
413.000
10
4512288.0000
20
6178445.6093
10
4512291.0000
20
6178445.0123
10
4512294.0000
20
6178444.8000
10
4512297.0000
20
6178445.0134
10
4512300.0000
20
6178445.6112
10
4512303.0000
20
6178446.4778
10
4512306.0000
20
6178447.4454
10
4512309.0000
20
6178448.3268
10
4512312.0000
20
6178448.9515
10
4512315.0000
20
6178449.1985
10
4512318.0000
20
6178449.0202
10
4512321.0000
20
6178448.4509
10
4512324.0000
20
6178447.6008
10
4512327.0000
20
6178446.6345
10
4512330.0000
20
6178445.7389
10
4512333.0000
20
6178445.0874
10
4512336.0000
20
6178444.8059
10
4512339.0000
20
6178444.9490
10
4512342.0000
20
6178445.4890
10
4512345.0000
20
6178446.3214
0
LWPOLYLINE
8
ДОРОГИ ПРОЕЗДЫ
100
AcDbEntity
100
AcDbPolyline
90
2
70
0
10
4512284.0000
20
6178388.0000
10
4512350.0000
20
6178388.0000
0
LWPOLYLINE
8
ДОРОГИ ПРОЕЗДЫ
100
AcDbEntity
100
AcDbPolyline
90
2
70
0
10
4512284.0000
20
6178391.0000
10
4512350.0000
20
6178391.0000
0
LWPOLYLINE
8
ДОРОГИ ПРОЕЗДЫ
100
AcDbEntity
100
AcDbPolyline
90
2
70
0
10
4512284.0000
20
6178394.0000
10
4512350.0000
20
6178394.0000
0
LWPOLYLINE
8
ОГРАЖДЕНИЯ
100
AcDbEntity
100
AcDbPolyline
90
4
70
0
10
4512299.6000
20
6178435.4000
10
4512334.4000
20
6178435.4000
10
4512334.4000
20
6178399.6000
10
4512321.0800
20
6178399.6000
0
LWPOLYLINE
8
ОГРАЖДЕНИЯ
100
AcDbEntity
100
AcDbPolyline
90
3
70
0
10
4512312.9200
20
6178399.6000
10
4512299.6000
20
6178399.6000
10
4512299.6000
20
6178435.4000
0
LWPOLYLINE
8
СУЩЕСТВУЮЩИЕ СТРОЕНИЯ
100
AcDbEntity
100
AcDbPolyline
90
4
70
1
10
4512284.0000
20
6178438.0000
10
4512293.0000
20
6178438.0000
10
4512293.0000
20
6178445.0000
10
4512284.0000
20
6178445.0000
0
LWPOLYLINE
8
СУЩЕСТВУЮЩИЕ СТРОЕНИЯ
100
AcDbEntity
100
AcDbPolyline
90
4
70
1
10
4512339.0000
20
6178410.5000
10
4512347.0000
20
6178410.5000
10
4512347.0000
20
6178416.5000
10
4512339.0000
20
6178416.5000
0
LWPOLYLINE
8
СУЩЕСТВУЮЩИЕ СТРОЕНИЯ
100
AcDbEntity
100
AcDbPolyline
90
4
70
1
10
4512340.0000
20
6178425.2000
10
4512345.0000
20
6178425.2000
10
4512345.0000
20
6178429.2000
10
4512340.0000
20
6178429.2000
0
LWPOLYLINE
8
СУЩЕСТВУЮЩИЕ СТРОЕНИЯ
100
AcDbEntity
100
AcDbPolyline
90
4
70
1
10
4512323.1200
20
6178402.8000
10
4512327.6200
20
6178402.8000
10
4512327.6200
20
6178405.8000
10
4512323.1200
20
6178405.8000
0
LWPOLYLINE
8
ЗЕЛЕНЫЕ НАСАЖДЕНИЯ
100
AcDbEntity
100
AcDbPolyline
90
8
70
1
10
4512296.4000
20
6178419.2500
10
4512295.6971
20
6178420.9471
10
4512294.0000
20
6178421.6500
10
4512292.3029
20
6178420.9471
10
4512291.6000
20
6178419.2500
10
4512292.3029
20
6178417.5529
10
4512294.0000
20
6178416.8500
10
4512295.6971
20
6178417.5529
0
LWPOLYLINE
8
ЗЕЛЕНЫЕ НАСАЖДЕНИЯ
100
AcDbEntity
100
AcDbPolyline
90
8
70
1
10
4512339.6000
20
6178401.7500
10
4512338.9849
20
6178403.2349
10
4512337.5000
20
6178403.8500
10
4512336.0151
20
6178403.2349
10
4512335.4000
20
6178401.7500
10
4512336.0151
20
6178400.2651
10
4512337.5000
20
6178399.6500
10
4512338.9849
20
6178400.2651
0
LWPOLYLINE
8
ЗЕЛЕНЫЕ НАСАЖДЕНИЯ
100
AcDbEntity
100
AcDbPolyline
90
8
70
1
10
4512306.8800
20
6178439.0000
10
4512306.0599
20
6178440.9799
10
4512304.0800
20
6178441.8000
10
4512302.1001
20
6178440.9799
10
4512301.2800
20
6178439.0000
10
4512302.1001
20
6178437.0201
10
4512304.0800
20
6178436.2000
10
4512306.0599
20
6178437.0201
0
LWPOLYLINE
8
ЗЕЛЕНЫЕ НАСАЖДЕНИЯ
100
AcDbEntity
100
AcDbPolyline
90
8
70
1
10
4512318.9000
20
6178395.0000
10
4512318.3435
20
6178396.3435
10
4512317.0000
20
6178396.9000
10
4512315.6565
20
6178396.3435
10
4512315.1000
20
6178395.0000
10
4512315.6565
20
6178393.6565
10
4512317.0000
20
6178393.1000
10
4512318.3435
20
6178393.6565
0
LWPOLYLINE
8
Г ГАЗОПРОВОД
100
AcDbEntity
100
AcDbPolyline
90
4
70
0
10
4512294.0000
20
6178407.0000
10
4512312.0000
20
6178409.5000
10
4512330.0000
20
6178407.5000
10
4512341.0000
20
6178409.0000
0
ENDSEC
0
EOF
