0
SECTION
2
HEADER
9
$ACADVER
1
AC1015
9
$INSUNITS
70
6
0
ENDSEC
0
SECTION
2
ENTITIES
0
LWPOLYLINE
8
ГРАНИЦА УЧАСТКА
100
AcDbEntity
100
AcDbPolyline
90
4
70
1
10
4512300.0000
20
6178400.0000
10
4512328.0000
20
6178401.2000
10
4512327.2800
20
6178429.0000
10
4512299.6400
20
6178428.5200
0
LWPOLYLINE
8
ГОРИЗОНТАЛИ
100
AcDbEntity
100
AcDbPolyline
90
18
70
0
38
412.400
10
4512288.0000
20
6178387.0820
10
4512291.0000
20
6178386.9011
10
4512294.0000
20
6178387.0313
10
4512297.0000
20
6178387.4358
10
4512300.0000
20
6178388.0000
10
4512303.0000
20
6178388.5642
10
4512306.0000
20
6178388.9687
10
4512309.0000
20
6178389.0989
10
4512312.0000
20
6178388.9180
10
4512315.0000
20
6178388.4773
10
4512318.0000
20
6178387.9014
10
4512321.0000
20
6178387.3534
10
4512324.0000
20
6178386.9885
10
4512327.0000
20
6178386.9100
10
4512330.0000
20
6178387.1400
10
4512333.0000
20
6178387.6135
10
4512336.0000
20
6178388.1964
10
4512339.0000
20
6178388.7237
0
LWPOLYLINE
8
ГОРИЗОНТАЛИ
100
AcDbEntity
100
AcDbPolyline
90
18
70
0
38
412.500
10
4512288.0000
20
6178395.7408
10
4512291.0000
20
6178395.9611
10
4512294.0000
20
6178396.4283
10
4512297.0000
20
6178397.0101
10
4512300.0000
20
6178397.5420
10
4512303.0000
20
6178397.8732
10
4512306.0000
20
6178397.9100
10
4512309.0000
20
6178397.6420
10
4512312.0000
20
6178397.1451
10
4512315.0000
20
6178396.5599
10
4512318.0000
20
6178396.0521
10
4512321.0000
20
6178395.7655
10
4512324.0000
20
6178395.7812
10
4512327.0000
20
6178396.0947
10
4512330.0000
20
6178396.6174
10
4512333.0000
20
6178397.2012
10
4512336.0000
20
6178397.6808
10
4512339.0000
20
6178397.9205
0
LWPOLYLINE
8
ГОРИЗОНТАЛИ
100
AcDbEntity
100
AcDbPolyline
90
18
70
0
38
412.600
10
4512288.0000
20
6178404.9135
10
4512291.0000
20
6178405.4313
10
4512294.0000
20
6178406.0157
10
4512297.0000
20
6178406.5013
10
4512300.0000
20
6178406.7507
10
4512303.0000
20
6178406.6931
10
4512306.0000
20
6178406.3450
10
4512309.0000
20
6178405.8048
10
4512312.0000
20
6178405.2255
10
4512315.0000
20
6178404.7711
10
4512318.0000
20
6178404.5703
10
4512321.0000
20
6178404.6798
10
4512324.0000
20
6178405.0687
10
4512327.0000
20
6178405.6269
10
4512330.0000
20
6178406.1964
10
4512333.0000
20
6178406.6158
10
4512336.0000
20
6178406.7666
10
4512339.0000
20
6178406.6060
0
LWPOLYLINE
8
ГОРИЗОНТАЛИ
100
AcDbEntity
100
AcDbPolyline
90
18
70
0
38
412.700
10
4512288.0000
20
6178414.4404
10
4512291.0000
20
6178415.0122
10
4512294.0000
20
6178415.4390
10
4512297.0000
20
6178415.6000
10
4512300.0000
20
6178415.4495
10
4512303.0000
20
6178415.0303
10
4512306.0000
20
6178414.4609
10
4512309.0000
20
6178413.9026
10
4512312.0000
20
6178413.5134
10
4512315.0000
20
6178413.4036
10
4512318.0000
20
6178413.6041
10
4512321.0000
20
6178414.0582
10
4512324.0000
20
6178414.6375
10
4512327.0000
20
6178415.1778
10
4512330.0000
20
6178415.5262
10
4512333.0000
20
6178415.5841
10
4512336.0000
20
6178415.3351
10
4512339.0000
20
6178414.8497
0
LWPOLYLINE
8
ГОРИЗОНТАЛИ
100
AcDbEntity
100
AcDbPolyline
90
18
70
0
38
412.800
10
4512288.0000
20
6178423.9953
10
4512291.0000
20
6178424.3522
10
4512294.0000
20
6178424.4206
10
4512297.0000
20
6178424.1813
10
4512300.0000
20
6178423.7018
10
4512303.0000
20
6178423.1181
10
4512306.0000
20
6178422.5953
10
4512309.0000
20
6178422.2814
10
4512312.0000
20
6178422.2653
10
4512315.0000
20
6178422.5516
10
4512318.0000
20
6178423.0592
10
4512321.0000
20
6178423.6444
10
4512324.0000
20
6178424.1415
10
4512327.0000
20
6178424.4099
10
4512330.0000
20
6178424.3734
10
4512333.0000
20
6178424.0425
10
4512336.0000
20
6178423.5108
10
4512339.0000
20
6178422.9289
0
LWPOLYLINE
8
ГОРИЗОНТАЛИ
100
AcDbEntity
100
AcDbPolyline
90
18
70
0
38
412.900
10
4512288.0000
20
6178433.2389
10
4512291.0000
20
6178433.2130
10
4512294.0000
20
6178432.8909
10
4512297.0000
20
6178432.3638
10
4512300.0000
20
6178431.7808
10
4512303.0000
20
6178431.3071
10
4512306.0000
20
6178431.0767
10
4512309.0000
20
6178431.1549
10
4512312.0000
20
6178431.5195
10
4512315.0000
20
6178432.0674
10
4512318.0000
20
6178432.6433
10
4512321.0000
20
6178433.0843
10
4512324.0000
20
6178433.2655
10
4512327.0000
20
6178433.1357
10
4512330.0000
20
6178432.7315
10
4512333.0000
20
6178432.1674
10
4512336.0000
20
6178431.6031
10
4512339.0000
20
6178431.1983
0
LWPOLYLINE
8
ГОРИЗОНТАЛИ
100
AcDbEntity
100
AcDbPolyline
90
18
70
0
38
413.000
10
4512288.0000
20
6178441.9782
10
4512291.0000
20
6178441.5818
10
4512294.0000
20
6178441.0206
10
4512297.0000
20
6178440.4536
10
4512300.0000
20
6178440.0413
10
4512303.0000
20
6178439.9004
10
4512306.0000
20
6178440.0708
10
4512309.0000
20
6178440.5043
10
4512312.0000
20
6178441.0781
10
4512315.0000
20
6178441.6298
10
4512318.0000
20
6178442.0032
10
4512321.0000
20
6178442.0926
10
4512324.0000
20
6178441.8727
10
4512327.0000
20
6178441.4057
10
4512330.0000
20
6178440.8239
10
4512333.0000
20
6178440.2919
10
4512336.0000
20
6178439.9604
10
4512339.0000
20
6178439.9232
0
LWPOLYLINE
8
ДОРОГИ ПРОЕЗДЫ
100
AcDbEntity
100
AcDbPolyline
90
2
70
0
10
4512284.0000
20
6178388.0000
10
4512344.0000
20
6178388.0000
0
LWPOLYLINE
8
ДОРОГИ ПРОЕЗДЫ
100
AcDbEntity
100
AcDbPolyline
90
2
70
0
10
4512284.0000
20
6178391.0000
10
4512344.0000
20
6178391.0000
0
LWPOLYLINE
8
ДОРОГИ ПРОЕЗДЫ
100
AcDbEntity
100
AcDbPolyline
90
2
70
0
10
4512284.0000
20
6178394.0000
10
4512344.0000
20
6178394.0000
0
LWPOLYLINE
8
ОГРАЖДЕНИЯ
100
AcDbEntity
100
AcDbPolyline
90
4
70
0
10
4512299.6000
20
6178429.4000
10
4512328.4000
20
6178429.4000
10
4512328.4000
20
6178399.6000
10
4512317.3600
20
6178399.6000
0
LWPOLYLINE
8
ОГРАЖДЕНИЯ
100
AcDbEntity
100
AcDbPolyline
90
3
70
0
10
4512310.6400
20
6178399.6000
10
4512299.6000
20
6178399.6000
10
4512299.6000
20
6178429.4000
0
LWPOLYLINE
8
СУЩЕСТВУЮЩИЕ СТРОЕНИЯ
100
AcDbEntity
100
AcDbPolyline
90
4
70
1
10
4512284.0000
20
6178432.0000
10
4512293.0000
20
6178432.0000
10
4512293.0000
20
6178439.0000
10
4512284.0000
20
6178439.0000
0
LWPOLYLINE
8
СУЩЕСТВУЮЩИЕ СТРОЕНИЯ
100
AcDbEntity
100
AcDbPolyline
90
4
70
1
10
4512333.0000
20
6178408.7000
10
4512341.0000
20
6178408.7000
10
4512341.0000
20
6178414.7000
10
4512333.0000
20
6178414.7000
0
LWPOLYLINE
8
СУЩЕСТВУЮЩИЕ СТРОЕНИЯ
100
AcDbEntity
100
AcDbPolyline
90
4
70
1
10
4512334.0000
20
6178420.8800
10
4512339.0000
20
6178420.8800
10
4512339.0000
20
6178424.8800
10
4512334.0000
20
6178424.8800
0
LWPOLYLINE
8
СУЩЕСТВУЮЩИЕ СТРОЕНИЯ
100
AcDbEntity
100
AcDbPolyline
90
4
70
1
10
4512319.0400
20
6178402.3200
10
4512323.5400
20
6178402.3200
10
4512323.5400
20
6178405.3200
10
4512319.0400
20
6178405.3200
0
LWPOLYLINE
8
ЗЕЛЕНЫЕ НАСАЖДЕНИЯ
100
AcDbEntity
100
AcDbPolyline
90
8
70
1
10
4512296.4000
20
6178415.9500
10
4512295.6971
20
6178417.6471
10
4512294.0000
20
6178418.3500
10
4512292.3029
20
6178417.6471
10
4512291.6000
20
6178415.9500
10
4512292.3029
20
6178414.2529
10
4512294.0000
20
6178413.5500
10
4512295.6971
20
6178414.2529
0
LWPOLYLINE
8
ЗЕЛЕНЫЕ НАСАЖДЕНИЯ
100
AcDbEntity
100
AcDbPolyline
90
8
70
1
10
4512333.6000
20
6178401.4500
10
4512332.9849
20
6178402.9349
10
4512331.5000
20
6178403.5500
10
4512330.0151
20
6178402.9349
10
4512329.4000
20
6178401.4500
10
4512330.0151
20
6178399.9651
10
4512331.5000
20
6178399.3500
10
4512332.9849
20
6178399.9651
0
LWPOLYLINE
8
ЗЕЛЕНЫЕ НАСАЖДЕНИЯ
100
AcDbEntity
100
AcDbPolyline
90
8
70
1
10
4512306.1600
20
6178433.0000
10
4512305.3399
20
6178434.9799
10
4512303.3600
20
6178435.8000
10
4512301.3801
20
6178434.9799
10
4512300.5600
20
6178433.0000
10
4512301.3801
20
6178431.0201
10
4512303.3600
20
6178430.2000
10
4512305.3399
20
6178431.0201
0
LWPOLYLINE
8
ЗЕЛЕНЫЕ НАСАЖДЕНИЯ
100
AcDbEntity
100
AcDbPolyline
90
8
70
1
10
4512315.9000
20
6178395.0000
10
4512315.3435
20
6178396.3435
10
4512314.0000
20
6178396.9000
10
4512312.6565
20
6178396.3435
10
4512312.1000
20
6178395.0000
10
4512312.6565
20
6178393.6565
10
4512314.0000
20
6178393.1000
10
4512315.3435
20
6178393.6565
0
ENDSEC
0
EOF
