0
SECTION
2
HEADER
9
$ACADVER
1
AC1015
9
$INSUNITS
70
6
0
ENDSEC
0
SECTION
2
ENTITIES
0
LWPOLYLINE
8
ГРАНИЦА УЧАСТКА
100
AcDbEntity
100
AcDbPolyline
90
4
70
1
10
4512300.0000
20
6178400.0000
10
4512330.0000
20
6178401.6000
10
4512329.0400
20
6178426.0000
10
4512299.5200
20
6178425.3600
0
LWPOLYLINE
8
ДОРОГИ ПРОЕЗДЫ
100
AcDbEntity
100
AcDbPolyline
90
2
70
0
10
4512284.0000
20
6178388.0000
10
4512346.0000
20
6178388.0000
0
LWPOLYLINE
8
ДОРОГИ ПРОЕЗДЫ
100
AcDbEntity
100
AcDbPolyline
90
2
70
0
10
4512284.0000
20
6178391.0000
10
4512346.0000
20
6178391.0000
0
LWPOLYLINE
8
ДОРОГИ ПРОЕЗДЫ
100
AcDbEntity
100
AcDbPolyline
90
2
70
0
10
4512284.0000
20
6178394.0000
10
4512346.0000
20
6178394.0000
0
LWPOLYLINE
8
ОГРАЖДЕНИЯ
100
AcDbEntity
100
AcDbPolyline
90
4
70
0
10
4512299.6000
20
6178426.4000
10
4512330.4000
20
6178426.4000
10
4512330.4000
20
6178399.6000
10
4512318.6000
20
6178399.6000
0
LWPOLYLINE
8
ОГРАЖДЕНИЯ
100
AcDbEntity
100
AcDbPolyline
90
3
70
0
10
4512311.4000
20
6178399.6000
10
4512299.6000
20
6178399.6000
10
4512299.6000
20
6178426.4000
0
LWPOLYLINE
8
СУЩЕСТВУЮЩИЕ СТРОЕНИЯ
100
AcDbEntity
100
AcDbPolyline
90
4
70
1
10
4512284.0000
20
6178429.0000
10
4512293.0000
20
6178429.0000
10
4512293.0000
20
6178436.0000
10
4512284.0000
20
6178436.0000
0
LWPOLYLINE
8
СУЩЕСТВУЮЩИЕ СТРОЕНИЯ
100
AcDbEntity
100
AcDbPolyline
90
4
70
1
10
4512335.0000
20
6178407.8000
10
4512343.0000
20
6178407.8000
10
4512343.0000
20
6178413.8000
10
4512335.0000
20
6178413.8000
0
LWPOLYLINE
8
СУЩЕСТВУЮЩИЕ СТРОЕНИЯ
100
AcDbEntity
100
AcDbPolyline
90
4
70
1
10
4512336.0000
20
6178418.7200
10
4512341.0000
20
6178418.7200
10
4512341.0000
20
6178422.7200
10
4512336.0000
20
6178422.7200
0
LWPOLYLINE
8
СУЩЕСТВУЮЩИЕ СТРОЕНИЯ
100
AcDbEntity
100
AcDbPolyline
90
4
70
1
10
4512320.4000
20
6178402.0800
10
4512324.9000
20
6178402.0800
10
4512324.9000
20
6178405.0800
10
4512320.4000
20
6178405.0800
0
LWPOLYLINE
8
ЗЕЛЕНЫЕ НАСАЖДЕНИЯ
100
AcDbEntity
100
AcDbPolyline
90
8
70
1
10
4512296.4000
20
6178414.3000
10
4512295.6971
20
6178415.9971
10
4512294.0000
20
6178416.7000
10
4512292.3029
20
6178415.9971
10
4512291.6000
20
6178414.3000
10
4512292.3029
20
6178412.6029
10
4512294.0000
20
6178411.9000
10
4512295.6971
20
6178412.6029
0
LWPOLYLINE
8
ЗЕЛЕНЫЕ НАСАЖДЕНИЯ
100
AcDbEntity
100
AcDbPolyline
90
8
70
1
10
4512335.6000
20
6178401.3000
10
4512334.9849
20
6178402.7849
10
4512333.5000
20
6178403.4000
10
4512332.0151
20
6178402.7849
10
4512331.4000
20
6178401.3000
10
4512332.0151
20
6178399.8151
10
4512333.5000
20
6178399.2000
10
4512334.9849
20
6178399.8151
0
LWPOLYLINE
8
ЗЕЛЕНЫЕ НАСАЖДЕНИЯ
100
AcDbEntity
100
AcDbPolyline
90
8
70
1
10
4512306.4000
20
6178430.0000
10
4512305.5799
20
6178431.9799
10
4512303.6000
20
6178432.8000
10
4512301.6201
20
6178431.9799
10
4512300.8000
20
6178430.0000
10
4512301.6201
20
6178428.0201
10
4512303.6000
20
6178427.2000
10
4512305.5799
20
6178428.0201
0
LWPOLYLINE
8
ЗЕЛЕНЫЕ НАСАЖДЕНИЯ
100
AcDbEntity
100
AcDbPolyline
90
8
70
1
10
4512316.9000
20
6178395.0000
10
4512316.3435
20
6178396.3435
10
4512315.0000
20
6178396.9000
10
4512313.6565
20
6178396.3435
10
4512313.1000
20
6178395.0000
10
4512313.6565
20
6178393.6565
10
4512315.0000
20
6178393.1000
10
4512316.3435
20
6178393.6565
0
POINT
8
ВЫСОТНЫЕ ОТМЕТКИ
10
4512296.0000
20
6178396.0000
30
404.620
0
TEXT
8
ВЫСОТНЫЕ ОТМЕТКИ
10
4512296.6000
20
6178396.4000
30
0.0
40
0.7
1
404.62
0
POINT
8
ВЫСОТНЫЕ ОТМЕТКИ
10
4512296.0000
20
6178402.0000
30
405.150
0
TEXT
8
ВЫСОТНЫЕ ОТМЕТКИ
10
4512296.6000
20
6178402.4000
30
0.0
40
0.7
1
405.15
0
POINT
8
ВЫСОТНЫЕ ОТМЕТКИ
10
4512296.0000
20
6178408.0000
30
405.680
0
TEXT
8
ВЫСОТНЫЕ ОТМЕТКИ
10
4512296.6000
20
6178408.4000
30
0.0
40
0.7
1
405.68
0
POINT
8
ВЫСОТНЫЕ ОТМЕТКИ
10
4512296.0000
20
6178414.0000
30
406.220
0
TEXT
8
ВЫСОТНЫЕ ОТМЕТКИ
10
4512296.6000
20
6178414.4000
30
0.0
40
0.7
1
406.22
0
POINT
8
ВЫСОТНЫЕ ОТМЕТКИ
10
4512296.0000
20
6178420.0000
30
406.770
0
TEXT
8
ВЫСОТНЫЕ ОТМЕТКИ
10
4512296.6000
20
6178420.4000
30
0.0
40
0.7
1
406.77
0
POINT
8
ВЫСОТНЫЕ ОТМЕТКИ
10
4512296.0000
20
6178426.0000
30
407.320
0
TEXT
8
ВЫСОТНЫЕ ОТМЕТКИ
10
4512296.6000
20
6178426.4000
30
0.0
40
0.7
1
407.32
0
POINT
8
ВЫСОТНЫЕ ОТМЕТКИ
10
4512302.0000
20
6178396.0000
30
404.940
0
TEXT
8
ВЫСОТНЫЕ ОТМЕТКИ
10
4512302.6000
20
6178396.4000
30
0.0
40
0.7
1
404.94
0
POINT
8
ВЫСОТНЫЕ ОТМЕТКИ
10
4512302.0000
20
6178402.0000
30
405.450
0
TEXT
8
ВЫСОТНЫЕ ОТМЕТКИ
10
4512302.6000
20
6178402.4000
30
0.0
40
0.7
1
405.45
0
POINT
8
ВЫСОТНЫЕ ОТМЕТКИ
10
4512302.0000
20
6178408.0000
30
405.900
0
TEXT
8
ВЫСОТНЫЕ ОТМЕТКИ
10
4512302.6000
20
6178408.4000
30
0.0
40
0.7
1
405.90
0
POINT
8
ВЫСОТНЫЕ ОТМЕТКИ
10
4512302.0000
20
6178414.0000
30
406.400
0
TEXT
8
ВЫСОТНЫЕ ОТМЕТКИ
10
4512302.6000
20
6178414.4000
30
0.0
40
0.7
1
406.40
0
POINT
8
ВЫСОТНЫЕ ОТМЕТКИ
10
4512302.0000
20
6178420.0000
30
407.010
0
TEXT
8
ВЫСОТНЫЕ ОТМЕТКИ
10
4512302.6000
20
6178420.4000
30
0.0
40
0.7
1
407.01
0
POINT
8
ВЫСОТНЫЕ ОТМЕТКИ
10
4512302.0000
20
6178426.0000
30
407.620
0
TEXT
8
ВЫСОТНЫЕ ОТМЕТКИ
10
4512302.6000
20
6178426.4000
30
0.0
40
0.7
1
407.62
0
POINT
8
ВЫСОТНЫЕ ОТМЕТКИ
10
4512308.0000
20
6178396.0000
30
405.250
0
TEXT
8
ВЫСОТНЫЕ ОТМЕТКИ
10
4512308.6000
20
6178396.4000
30
0.0
40
0.7
1
405.25
0
POINT
8
ВЫСОТНЫЕ ОТМЕТКИ
10
4512308.0000
20
6178402.0000
30
405.650
0
TEXT
8
ВЫСОТНЫЕ ОТМЕТКИ
10
4512308.6000
20
6178402.4000
30
0.0
40
0.7
1
405.65
0
POINT
8
ВЫСОТНЫЕ ОТМЕТКИ
10
4512308.0000
20
6178408.0000
30
405.880
0
TEXT
8
ВЫСОТНЫЕ ОТМЕТКИ
10
4512308.6000
20
6178408.4000
30
0.0
40
0.7
1
405.88
0
POINT
8
ВЫСОТНЫЕ ОТМЕТКИ
10
4512308.0000
20
6178414.0000
30
406.270
0
TEXT
8
ВЫСОТНЫЕ ОТМЕТКИ
10
4512308.6000
20
6178414.4000
30
0.0
40
0.7
1
406.27
0
POINT
8
ВЫСОТНЫЕ ОТМЕТКИ
10
4512308.0000
20
6178420.0000
30
407.070
0
TEXT
8
ВЫСОТНЫЕ ОТМЕТКИ
10
4512308.6000
20
6178420.4000
30
0.0
40
0.7
1
407.07
0
POINT
8
ВЫСОТНЫЕ ОТМЕТКИ
10
4512308.0000
20
6178426.0000
30
407.880
0
TEXT
8
ВЫСОТНЫЕ ОТМЕТКИ
10
4512308.6000
20
6178426.4000
30
0.0
40
0.7
1
407.88
0
POINT
8
ВЫСОТНЫЕ ОТМЕТКИ
10
4512314.0000
20
6178396.0000
30
405.570
0
TEXT
8
ВЫСОТНЫЕ ОТМЕТКИ
10
4512314.6000
20
6178396.4000
30
0.0
40
0.7
1
405.57
0
POINT
8
ВЫСОТНЫЕ ОТМЕТКИ
10
4512314.0000
20
6178402.0000
30
405.870
0
TEXT
8
ВЫСОТНЫЕ ОТМЕТКИ
10
4512314.6000
20
6178402.4000
30
0.0
40
0.7
1
405.87
0
POINT
8
ВЫСОТНЫЕ ОТМЕТКИ
10
4512314.0000
20
6178408.0000
30
405.870
0
TEXT
8
ВЫСОТНЫЕ ОТМЕТКИ
10
4512314.6000
20
6178408.4000
30
0.0
40
0.7
1
405.87
0
POINT
8
ВЫСОТНЫЕ ОТМЕТКИ
10
4512314.0000
20
6178414.0000
30
406.150
0
TEXT
8
ВЫСОТНЫЕ ОТМЕТКИ
10
4512314.6000
20
6178414.4000
30
0.0
40
0.7
1
406.15
0
POINT
8
ВЫСОТНЫЕ ОТМЕТКИ
10
4512314.0000
20
6178420.0000
30
407.140
0
TEXT
8
ВЫСОТНЫЕ ОТМЕТКИ
10
4512314.6000
20
6178420.4000
30
0.0
40
0.7
1
407.14
0
POINT
8
ВЫСОТНЫЕ ОТМЕТКИ
10
4512314.0000
20
6178426.0000
30
408.140
0
TEXT
8
ВЫСОТНЫЕ ОТМЕТКИ
10
4512314.6000
20
6178426.4000
30
0.0
40
0.7
1
408.14
0
POINT
8
ВЫСОТНЫЕ ОТМЕТКИ
10
4512320.0000
20
6178396.0000
30
405.910
0
TEXT
8
ВЫСОТНЫЕ ОТМЕТКИ
10
4512320.6000
20
6178396.4000
30
0.0
40
0.7
1
405.91
0
POINT
8
ВЫСОТНЫЕ ОТМЕТКИ
10
4512320.0000
20
6178402.0000
30
406.260
0
TEXT
8
ВЫСОТНЫЕ ОТМЕТКИ
10
4512320.6000
20
6178402.4000
30
0.0
40
0.7
1
406.26
0
POINT
8
ВЫСОТНЫЕ ОТМЕТКИ
10
4512320.0000
20
6178408.0000
30
406.390
0
TEXT
8
ВЫСОТНЫЕ ОТМЕТКИ
10
4512320.6000
20
6178408.4000
30
0.0
40
0.7
1
406.39
0
POINT
8
ВЫСОТНЫЕ ОТМЕТКИ
10
4512320.0000
20
6178414.0000
30
406.740
0
TEXT
8
ВЫСОТНЫЕ ОТМЕТКИ
10
4512320.6000
20
6178414.4000
30
0.0
40
0.7
1
406.74
0
POINT
8
ВЫСОТНЫЕ ОТМЕТКИ
10
4512320.0000
20
6178420.0000
30
407.620
0
TEXT
8
ВЫСОТНЫЕ ОТМЕТКИ
10
4512320.6000
20
6178420.4000
30
0.0
40
0.7
1
407.62
0
POINT
8
ВЫСОТНЫЕ ОТМЕТКИ
10
4512320.0000
20
6178426.0000
30
408.510
0
TEXT
8
ВЫСОТНЫЕ ОТМЕТКИ
10
4512320.6000
20
6178426.4000
30
0.0
40
0.7
1
408.51
0
POINT
8
ВЫСОТНЫЕ ОТМЕТКИ
10
4512326.0000
20
6178396.0000
30
406.260
0
TEXT
8
ВЫСОТНЫЕ ОТМЕТКИ
10
4512326.6000
20
6178396.4000
30
0.0
40
0.7
1
406.26
0
POINT
8
ВЫСОТНЫЕ ОТМЕТКИ
10
4512326.0000
20
6178402.0000
30
406.740
0
TEXT
8
ВЫСОТНЫЕ ОТМЕТКИ
10
4512326.6000
20
6178402.4000
30
0.0
40
0.7
1
406.74
0
POINT
8
ВЫСОТНЫЕ ОТМЕТКИ
10
4512326.0000
20
6178408.0000
30
407.130
0
TEXT
8
ВЫСОТНЫЕ ОТМЕТКИ
10
4512326.6000
20
6178408.4000
30
0.0
40
0.7
1
407.13
0
POINT
8
ВЫСОТНЫЕ ОТМЕТКИ
10
4512326.0000
20
6178414.0000
30
407.610
0
TEXT
8
ВЫСОТНЫЕ ОТМЕТКИ
10
4512326.6000
20
6178414.4000
30
0.0
40
0.7
1
407.61
0
POINT
8
ВЫСОТНЫЕ ОТМЕТКИ
10
4512326.0000
20
6178420.0000
30
408.260
0
TEXT
8
ВЫСОТНЫЕ ОТМЕТКИ
10
4512326.6000
20
6178420.4000
30
0.0
40
0.7
1
408.26
0
POINT
8
ВЫСОТНЫЕ ОТМЕТКИ
10
4512326.0000
20
6178426.0000
30
408.930
0
TEXT
8
ВЫСОТНЫЕ ОТМЕТКИ
10
4512326.6000
20
6178426.4000
30
0.0
40
0.7
1
408.93
0
POINT
8
ВЫСОТНЫЕ ОТМЕТКИ
10
4512332.0000
20
6178396.0000
30
406.600
0
TEXT
8
ВЫСОТНЫЕ ОТМЕТКИ
10
4512332.6000
20
6178396.4000
30
0.0
40
0.7
1
406.60
0
POINT
8
ВЫСОТНЫЕ ОТМЕТКИ
10
4512332.0000
20
6178402.0000
30
407.130
0
TEXT
8
ВЫСОТНЫЕ ОТМЕТКИ
10
4512332.6000
20
6178402.4000
30
0.0
40
0.7
1
407.13
0
POINT
8
ВЫСОТНЫЕ ОТМЕТКИ
10
4512332.0000
20
6178408.0000
30
407.650
0
TEXT
8
ВЫСОТНЫЕ ОТМЕТКИ
10
4512332.6000
20
6178408.4000
30
0.0
40
0.7
1
407.65
0
POINT
8
ВЫСОТНЫЕ ОТМЕТКИ
10
4512332.0000
20
6178414.0000
30
408.180
0
TEXT
8
ВЫСОТНЫЕ ОТМЕТКИ
10
4512332.6000
20
6178414.4000
30
0.0
40
0.7
1
408.18
0
POINT
8
ВЫСОТНЫЕ ОТМЕТКИ
10
4512332.0000
20
6178420.0000
30
408.730
0
TEXT
8
ВЫСОТНЫЕ ОТМЕТКИ
10
4512332.6000
20
6178420.4000
30
0.0
40
0.7
1
408.73
0
POINT
8
ВЫСОТНЫЕ ОТМЕТКИ
10
4512332.0000
20
6178426.0000
30
409.290
0
TEXT
8
ВЫСОТНЫЕ ОТМЕТКИ
10
4512332.6000
20
6178426.4000
30
0.0
40
0.7
1
409.29
0
ENDSEC
0
EOF
